<mxfile host="65bd71144e">
    <diagram id="Y1eT_fLth1CDjwV7kim_" name="Page-1">
        <mxGraphModel dx="1283" dy="280" grid="1" gridSize="10" guides="1" tooltips="1" connect="1" arrows="1" fold="1" page="1" pageScale="1" pageWidth="850" pageHeight="1100" math="0" shadow="0">
            <root>
                <mxCell id="0"/>
                <mxCell id="1" parent="0"/>
                <mxCell id="80" style="edgeStyle=none;html=1;entryX=0.5;entryY=0;entryDx=0;entryDy=0;" parent="1" source="5" target="79" edge="1">
                    <mxGeometry relative="1" as="geometry"/>
                </mxCell>
                <mxCell id="5" value="START" style="strokeWidth=2;html=1;shape=mxgraph.flowchart.start_2;whiteSpace=wrap;" parent="1" vertex="1">
                    <mxGeometry x="330" y="75" width="60" height="30" as="geometry"/>
                </mxCell>
                <mxCell id="10" style="edgeStyle=orthogonalEdgeStyle;html=1;entryX=0.5;entryY=0;entryDx=0;entryDy=0;entryPerimeter=0;" parent="1" source="6" target="8" edge="1">
                    <mxGeometry relative="1" as="geometry"/>
                </mxCell>
                <mxCell id="6" value="Displaye Login &lt;br&gt;Window&lt;br&gt;UserLoginCoord::show_window()" style="shape=parallelogram;html=1;strokeWidth=2;perimeter=parallelogramPerimeter;whiteSpace=wrap;rounded=1;arcSize=12;size=0.23;" parent="1" vertex="1">
                    <mxGeometry x="191.25" y="280" width="337.5" height="70" as="geometry"/>
                </mxCell>
                <mxCell id="12" style="edgeStyle=orthogonalEdgeStyle;html=1;entryX=0.5;entryY=0;entryDx=0;entryDy=0;" parent="1" source="8" target="9" edge="1">
                    <mxGeometry relative="1" as="geometry">
                        <mxPoint x="180" y="450" as="targetPoint"/>
                    </mxGeometry>
                </mxCell>
                <mxCell id="13" value="Create New user" style="edgeLabel;html=1;align=center;verticalAlign=middle;resizable=0;points=[];" parent="12" vertex="1" connectable="0">
                    <mxGeometry x="-0.1415" y="1" width="110" height="30" relative="1" as="geometry">
                        <mxPoint x="-83" y="38" as="offset"/>
                    </mxGeometry>
                </mxCell>
                <mxCell id="15" style="edgeStyle=orthogonalEdgeStyle;html=1;" parent="1" source="8" target="14" edge="1">
                    <mxGeometry relative="1" as="geometry"/>
                </mxCell>
                <mxCell id="19" value="Login" style="edgeLabel;html=1;align=center;verticalAlign=middle;resizable=0;points=[];" parent="15" vertex="1" connectable="0">
                    <mxGeometry x="-0.44" y="-3" width="50" height="30" relative="1" as="geometry">
                        <mxPoint x="-27" y="11" as="offset"/>
                    </mxGeometry>
                </mxCell>
                <mxCell id="17" style="edgeStyle=orthogonalEdgeStyle;html=1;entryX=0.5;entryY=0;entryDx=0;entryDy=0;" parent="1" source="8" target="16" edge="1">
                    <mxGeometry relative="1" as="geometry"/>
                </mxCell>
                <mxCell id="18" value="Cancel&lt;br&gt;" style="edgeLabel;html=1;align=center;verticalAlign=middle;resizable=0;points=[];" parent="17" vertex="1" connectable="0">
                    <mxGeometry x="-0.375" y="-4" width="60" height="30" relative="1" as="geometry">
                        <mxPoint x="5" y="51" as="offset"/>
                    </mxGeometry>
                </mxCell>
                <mxCell id="8" value="user clicks button" style="strokeWidth=2;html=1;shape=mxgraph.flowchart.decision;whiteSpace=wrap;" parent="1" vertex="1">
                    <mxGeometry x="295" y="435" width="130" height="65" as="geometry"/>
                </mxCell>
                <mxCell id="85" style="edgeStyle=orthogonalEdgeStyle;html=1;" parent="1" source="9" target="82" edge="1">
                    <mxGeometry relative="1" as="geometry"/>
                </mxCell>
                <mxCell id="9" value="(UserLoginCoord)&lt;br&gt;update_model();&lt;br&gt;emit newUserCreationRequested();" style="rounded=1;whiteSpace=wrap;html=1;absoluteArcSize=1;arcSize=14;strokeWidth=2;" parent="1" vertex="1">
                    <mxGeometry x="45.31" y="498" width="218.75" height="55" as="geometry"/>
                </mxCell>
                <mxCell id="14" value="" style="rounded=1;whiteSpace=wrap;html=1;absoluteArcSize=1;arcSize=14;strokeWidth=2;" parent="1" vertex="1">
                    <mxGeometry x="317.5" y="570" width="85" height="70" as="geometry"/>
                </mxCell>
                <mxCell id="16" value="" style="rounded=1;whiteSpace=wrap;html=1;absoluteArcSize=1;arcSize=14;strokeWidth=2;" parent="1" vertex="1">
                    <mxGeometry x="495" y="585" width="50" height="40" as="geometry"/>
                </mxCell>
                <mxCell id="23" style="edgeStyle=orthogonalEdgeStyle;html=1;entryX=0.5;entryY=1;entryDx=0;entryDy=0;" parent="1" source="20" target="22" edge="1">
                    <mxGeometry relative="1" as="geometry"/>
                </mxCell>
                <mxCell id="24" value="YES" style="edgeLabel;html=1;align=center;verticalAlign=middle;resizable=0;points=[];" parent="23" vertex="1" connectable="0">
                    <mxGeometry x="-0.8012" y="-2" width="50" height="30" relative="1" as="geometry">
                        <mxPoint x="-25" y="-13" as="offset"/>
                    </mxGeometry>
                </mxCell>
                <mxCell id="31" value="" style="edgeStyle=orthogonalEdgeStyle;html=1;entryX=0;entryY=0.5;entryDx=0;entryDy=0;" parent="1" source="20" target="32" edge="1">
                    <mxGeometry relative="1" as="geometry">
                        <mxPoint x="295" y="656" as="targetPoint"/>
                    </mxGeometry>
                </mxCell>
                <mxCell id="33" value="NO&lt;br&gt;" style="edgeLabel;html=1;align=center;verticalAlign=middle;resizable=0;points=[];" parent="31" vertex="1" connectable="0">
                    <mxGeometry x="-0.3226" y="2" width="40" height="30" relative="1" as="geometry">
                        <mxPoint x="-22" y="-13" as="offset"/>
                    </mxGeometry>
                </mxCell>
                <mxCell id="20" value="Is There user Already?" style="strokeWidth=2;html=1;shape=mxgraph.flowchart.decision;whiteSpace=wrap;" parent="1" vertex="1">
                    <mxGeometry x="70" y="719" width="169.38" height="60" as="geometry"/>
                </mxCell>
                <mxCell id="28" style="edgeStyle=none;html=1;" parent="1" source="22" target="26" edge="1">
                    <mxGeometry relative="1" as="geometry"/>
                </mxCell>
                <mxCell id="22" value="Show Message Box" style="rounded=1;whiteSpace=wrap;html=1;absoluteArcSize=1;arcSize=14;strokeWidth=2;" parent="1" vertex="1">
                    <mxGeometry x="-75" y="390" width="130" height="30" as="geometry"/>
                </mxCell>
                <mxCell id="29" style="edgeStyle=orthogonalEdgeStyle;html=1;entryX=0.17;entryY=0.3;entryDx=0;entryDy=0;entryPerimeter=0;" parent="1" source="26" target="8" edge="1">
                    <mxGeometry relative="1" as="geometry"/>
                </mxCell>
                <mxCell id="26" value="OK" style="strokeWidth=2;html=1;shape=mxgraph.flowchart.decision;whiteSpace=wrap;" parent="1" vertex="1">
                    <mxGeometry x="130" y="388" width="40" height="30" as="geometry"/>
                </mxCell>
                <mxCell id="36" style="edgeStyle=orthogonalEdgeStyle;html=1;entryX=0;entryY=0.5;entryDx=0;entryDy=0;entryPerimeter=0;" parent="1" source="32" target="35" edge="1">
                    <mxGeometry relative="1" as="geometry"/>
                </mxCell>
                <mxCell id="32" value="(UserLoginMdl)&lt;br&gt;Create new user and save json file" style="rounded=1;whiteSpace=wrap;html=1;absoluteArcSize=1;arcSize=14;strokeWidth=2;" parent="1" vertex="1">
                    <mxGeometry x="310" y="722.75" width="105" height="52.5" as="geometry"/>
                </mxCell>
                <mxCell id="37" style="edgeStyle=orthogonalEdgeStyle;html=1;entryX=0.3;entryY=0.167;entryDx=0;entryDy=0;entryPerimeter=0;fontStyle=1;exitX=0.5;exitY=1;exitDx=0;exitDy=0;exitPerimeter=0;" parent="1" source="35" target="8" edge="1">
                    <mxGeometry relative="1" as="geometry">
                        <mxPoint x="495.00000000000045" y="765" as="sourcePoint"/>
                        <mxPoint x="349.99999999999955" y="433.73" as="targetPoint"/>
                        <Array as="points">
                            <mxPoint x="500" y="840"/>
                            <mxPoint x="-160" y="840"/>
                            <mxPoint x="-160" y="366"/>
                            <mxPoint x="334" y="366"/>
                        </Array>
                    </mxGeometry>
                </mxCell>
                <mxCell id="40" value="NO" style="edgeLabel;html=1;align=center;verticalAlign=middle;resizable=0;points=[];" parent="37" vertex="1" connectable="0">
                    <mxGeometry x="-0.9908" relative="1" as="geometry">
                        <mxPoint y="18" as="offset"/>
                    </mxGeometry>
                </mxCell>
                <mxCell id="43" value="" style="edgeStyle=orthogonalEdgeStyle;html=1;" parent="1" source="35" target="42" edge="1">
                    <mxGeometry relative="1" as="geometry"/>
                </mxCell>
                <mxCell id="86" value="YES" style="edgeLabel;html=1;align=center;verticalAlign=middle;resizable=0;points=[];" parent="43" vertex="1" connectable="0">
                    <mxGeometry x="-0.6778" y="-2" relative="1" as="geometry">
                        <mxPoint x="8" y="-2" as="offset"/>
                    </mxGeometry>
                </mxCell>
                <mxCell id="35" value="saved file" style="strokeWidth=2;html=1;shape=mxgraph.flowchart.decision;whiteSpace=wrap;" parent="1" vertex="1">
                    <mxGeometry x="460" y="714.5" width="80" height="69" as="geometry"/>
                </mxCell>
                <mxCell id="51" style="edgeStyle=orthogonalEdgeStyle;html=1;entryX=0.481;entryY=1;entryDx=0;entryDy=0;entryPerimeter=0;" parent="1" source="42" target="49" edge="1">
                    <mxGeometry relative="1" as="geometry"/>
                </mxCell>
                <mxCell id="52" value="NO" style="edgeLabel;html=1;align=center;verticalAlign=middle;resizable=0;points=[];" parent="51" vertex="1" connectable="0">
                    <mxGeometry x="-0.686" relative="1" as="geometry">
                        <mxPoint y="-11" as="offset"/>
                    </mxGeometry>
                </mxCell>
                <mxCell id="42" value="Is There Super User Database Connection?" style="strokeWidth=2;html=1;shape=mxgraph.flowchart.decision;whiteSpace=wrap;" parent="1" vertex="1">
                    <mxGeometry x="632.5" y="709" width="125" height="80" as="geometry"/>
                </mxCell>
                <mxCell id="55" style="edgeStyle=orthogonalEdgeStyle;html=1;entryX=0.5;entryY=1;entryDx=0;entryDy=0;entryPerimeter=0;" parent="1" source="49" target="54" edge="1">
                    <mxGeometry relative="1" as="geometry"/>
                </mxCell>
                <mxCell id="49" value="Display Database&lt;br&gt;Login Window" style="shape=parallelogram;html=1;strokeWidth=2;perimeter=parallelogramPerimeter;whiteSpace=wrap;rounded=1;arcSize=12;size=0.23;" parent="1" vertex="1">
                    <mxGeometry x="633.75" y="620" width="130" height="50" as="geometry"/>
                </mxCell>
                <mxCell id="56" style="edgeStyle=orthogonalEdgeStyle;html=1;entryX=0.5;entryY=1;entryDx=0;entryDy=0;entryPerimeter=0;" parent="1" source="54" target="58" edge="1">
                    <mxGeometry relative="1" as="geometry">
                        <mxPoint x="655" y="476" as="targetPoint"/>
                    </mxGeometry>
                </mxCell>
                <mxCell id="57" value="Test Connection" style="edgeLabel;html=1;align=center;verticalAlign=middle;resizable=0;points=[];" parent="56" vertex="1" connectable="0">
                    <mxGeometry x="-0.4159" y="1" relative="1" as="geometry">
                        <mxPoint x="1" y="-9" as="offset"/>
                    </mxGeometry>
                </mxCell>
                <mxCell id="69" style="edgeStyle=orthogonalEdgeStyle;html=1;" parent="1" source="54" target="71" edge="1">
                    <mxGeometry relative="1" as="geometry">
                        <mxPoint x="820" y="546" as="targetPoint"/>
                    </mxGeometry>
                </mxCell>
                <mxCell id="70" value="Login" style="edgeLabel;html=1;align=center;verticalAlign=middle;resizable=0;points=[];" parent="69" vertex="1" connectable="0">
                    <mxGeometry x="-0.2154" relative="1" as="geometry">
                        <mxPoint as="offset"/>
                    </mxGeometry>
                </mxCell>
                <mxCell id="54" value="user clicks button" style="strokeWidth=2;html=1;shape=mxgraph.flowchart.decision;whiteSpace=wrap;" parent="1" vertex="1">
                    <mxGeometry x="640" y="506" width="117.5" height="60" as="geometry"/>
                </mxCell>
                <mxCell id="59" style="edgeStyle=orthogonalEdgeStyle;html=1;entryX=0;entryY=0.5;entryDx=0;entryDy=0;entryPerimeter=0;" parent="1" source="58" target="54" edge="1">
                    <mxGeometry relative="1" as="geometry">
                        <mxPoint x="570" y="551" as="targetPoint"/>
                        <Array as="points">
                            <mxPoint x="600" y="446"/>
                            <mxPoint x="600" y="536"/>
                        </Array>
                    </mxGeometry>
                </mxCell>
                <mxCell id="60" value="YES" style="edgeLabel;html=1;align=center;verticalAlign=middle;resizable=0;points=[];" parent="59" vertex="1" connectable="0">
                    <mxGeometry x="-0.8529" relative="1" as="geometry">
                        <mxPoint x="-11" as="offset"/>
                    </mxGeometry>
                </mxCell>
                <mxCell id="62" style="edgeStyle=orthogonalEdgeStyle;html=1;entryX=1;entryY=0.5;entryDx=0;entryDy=0;exitX=1;exitY=0.5;exitDx=0;exitDy=0;exitPerimeter=0;" parent="1" source="58" target="61" edge="1">
                    <mxGeometry relative="1" as="geometry">
                        <mxPoint x="650" y="361" as="targetPoint"/>
                        <Array as="points">
                            <mxPoint x="800" y="446"/>
                            <mxPoint x="800" y="336"/>
                        </Array>
                    </mxGeometry>
                </mxCell>
                <mxCell id="66" value="NO" style="edgeLabel;html=1;align=center;verticalAlign=middle;resizable=0;points=[];" parent="62" vertex="1" connectable="0">
                    <mxGeometry x="-0.8938" y="-2" relative="1" as="geometry">
                        <mxPoint x="18" y="-2" as="offset"/>
                    </mxGeometry>
                </mxCell>
                <mxCell id="58" value="Succesfully?" style="strokeWidth=2;html=1;shape=mxgraph.flowchart.decision;whiteSpace=wrap;" parent="1" vertex="1">
                    <mxGeometry x="647.5" y="431" width="100" height="30" as="geometry"/>
                </mxCell>
                <mxCell id="64" style="edgeStyle=orthogonalEdgeStyle;html=1;entryX=0.5;entryY=0;entryDx=0;entryDy=0;entryPerimeter=0;" parent="1" source="61" target="63" edge="1">
                    <mxGeometry relative="1" as="geometry"/>
                </mxCell>
                <mxCell id="61" value="Display Error message" style="shape=parallelogram;html=1;strokeWidth=2;perimeter=parallelogramPerimeter;whiteSpace=wrap;rounded=1;arcSize=12;size=0.23;" parent="1" vertex="1">
                    <mxGeometry x="652.5" y="311" width="90" height="50" as="geometry"/>
                </mxCell>
                <mxCell id="65" style="edgeStyle=orthogonalEdgeStyle;html=1;exitX=0.5;exitY=1;exitDx=0;exitDy=0;exitPerimeter=0;entryX=0;entryY=0.5;entryDx=0;entryDy=0;entryPerimeter=0;" parent="1" source="63" target="54" edge="1">
                    <mxGeometry relative="1" as="geometry">
                        <mxPoint x="563" y="461" as="sourcePoint"/>
                        <Array as="points">
                            <mxPoint x="563" y="536"/>
                        </Array>
                        <mxPoint x="580" y="581" as="targetPoint"/>
                    </mxGeometry>
                </mxCell>
                <mxCell id="63" value="OK" style="strokeWidth=2;html=1;shape=mxgraph.flowchart.decision;whiteSpace=wrap;" parent="1" vertex="1">
                    <mxGeometry x="530" y="391" width="65" height="30" as="geometry"/>
                </mxCell>
                <mxCell id="72" style="edgeStyle=orthogonalEdgeStyle;html=1;entryX=0.674;entryY=0.888;entryDx=0;entryDy=0;entryPerimeter=0;exitX=0.5;exitY=1;exitDx=0;exitDy=0;exitPerimeter=0;" parent="1" source="71" target="54" edge="1">
                    <mxGeometry relative="1" as="geometry">
                        <Array as="points">
                            <mxPoint x="860" y="576"/>
                            <mxPoint x="719" y="576"/>
                        </Array>
                    </mxGeometry>
                </mxCell>
                <mxCell id="73" value="No" style="edgeLabel;html=1;align=center;verticalAlign=middle;resizable=0;points=[];" parent="72" vertex="1" connectable="0">
                    <mxGeometry x="-0.3714" y="-1" relative="1" as="geometry">
                        <mxPoint as="offset"/>
                    </mxGeometry>
                </mxCell>
                <mxCell id="75" style="edgeStyle=orthogonalEdgeStyle;html=1;entryX=0;entryY=0.5;entryDx=0;entryDy=0;" parent="1" source="71" target="74" edge="1">
                    <mxGeometry relative="1" as="geometry"/>
                </mxCell>
                <mxCell id="71" value="Succesfully?" style="strokeWidth=2;html=1;shape=mxgraph.flowchart.decision;whiteSpace=wrap;" parent="1" vertex="1">
                    <mxGeometry x="820" y="511" width="80" height="50" as="geometry"/>
                </mxCell>
                <mxCell id="90" style="edgeStyle=orthogonalEdgeStyle;html=1;entryX=0.724;entryY=0.152;entryDx=0;entryDy=0;entryPerimeter=0;" edge="1" parent="1" source="74" target="8">
                    <mxGeometry relative="1" as="geometry">
                        <mxPoint x="1020" y="240" as="targetPoint"/>
                        <Array as="points">
                            <mxPoint x="1040" y="260"/>
                            <mxPoint x="520" y="260"/>
                            <mxPoint x="520" y="445"/>
                        </Array>
                    </mxGeometry>
                </mxCell>
                <mxCell id="74" value="DBLoginCoord::show_window(false)&lt;br&gt;" style="rounded=1;whiteSpace=wrap;html=1;absoluteArcSize=1;arcSize=14;strokeWidth=2;" parent="1" vertex="1">
                    <mxGeometry x="930" y="516" width="220" height="40" as="geometry"/>
                </mxCell>
                <mxCell id="81" style="edgeStyle=none;html=1;" parent="1" source="79" target="6" edge="1">
                    <mxGeometry relative="1" as="geometry"/>
                </mxCell>
                <mxCell id="79" value="AppCoord -&amp;gt;startApplication();&lt;br&gt;Log::instance().initialize(log_file_path_qstr);&lt;br&gt;DBManager::checkPostgresqlInstallation();" style="rounded=1;whiteSpace=wrap;html=1;absoluteArcSize=1;arcSize=14;strokeWidth=2;" parent="1" vertex="1">
                    <mxGeometry x="220" y="150" width="280" height="55" as="geometry"/>
                </mxCell>
                <mxCell id="88" style="edgeStyle=orthogonalEdgeStyle;html=1;entryX=0.5;entryY=0;entryDx=0;entryDy=0;" parent="1" source="82" target="87" edge="1">
                    <mxGeometry relative="1" as="geometry"/>
                </mxCell>
                <mxCell id="82" value="(AppCoord)&lt;br&gt;UserLoginCoord::createNewUser()" style="rounded=1;whiteSpace=wrap;html=1;absoluteArcSize=1;arcSize=14;strokeWidth=2;" parent="1" vertex="1">
                    <mxGeometry x="43.440000000000005" y="580" width="222.5" height="40" as="geometry"/>
                </mxCell>
                <mxCell id="89" style="edgeStyle=orthogonalEdgeStyle;html=1;entryX=0.5;entryY=0;entryDx=0;entryDy=0;entryPerimeter=0;" parent="1" source="87" target="20" edge="1">
                    <mxGeometry relative="1" as="geometry"/>
                </mxCell>
                <mxCell id="87" value="(UserLoginMdl)&lt;br&gt;UserLoginVM::UserLoginMdl&lt;br&gt;create_new_user();" style="rounded=1;whiteSpace=wrap;html=1;absoluteArcSize=1;arcSize=14;strokeWidth=2;" parent="1" vertex="1">
                    <mxGeometry x="43.44" y="640" width="222.5" height="60" as="geometry"/>
                </mxCell>
            </root>
        </mxGraphModel>
    </diagram>
</mxfile>